<svg width="64" height="64" viewBox="0 0 64 64" xmlns="http://www.w3.org/2000/svg">
  <defs>
    <linearGradient id="bg" x1="0" y1="0" x2="1" y2="1">
      <stop offset="0%" stop-color="#FF4D6D"/>
      <stop offset="55%" stop-color="#FF8A3D"/>
      <stop offset="100%" stop-color="#FFB020"/>
    </linearGradient>
  </defs>
  <rect width="64" height="64" rx="16" fill="url(#bg)"/>
  <path d="M20 46V22a3 3 0 0 1 3-3h10a3 3 0 0 1 3 3v24" fill="none" stroke="#FFFFFF" stroke-width="3.2" stroke-linecap="round" stroke-linejoin="round"/>
  <path d="M17 46h22" stroke="#FFFFFF" stroke-width="3.2" stroke-linecap="round"/>
  <path d="M21 30h11" stroke="#FFFFFF" stroke-width="3.2" stroke-linecap="round"/>
  <path d="M36 25l6 3.6a3 3 0 0 1 1.5 2.6V40a2.5 2.5 0 0 1-5 0v-6" fill="none" stroke="#FFFFFF" stroke-width="3.2" stroke-linecap="round" stroke-linejoin="round"/>
  <path d="M30.5 12.5l-6 9h4.6l-2.4 8.5 7.8-10.3h-4.8z" fill="#FFFFFF"/>
</svg>
